<svg xmlns="http://www.w3.org/2000/svg" xmlns:xlink="http://www.w3.org/1999/xlink" width="176" height="55.859" viewBox="0 0 176 55.859"><defs><clipPath id="b"><rect width="176" height="55.859"/></clipPath></defs><g id="a" clip-path="url(#b)"><rect width="176" height="56" rx="15" fill="#fff"/><g transform="translate(9 8.268)"><path d="M33.866,29.589a9.007,9.007,0,0,1-2.15-2.395,11.317,11.317,0,0,1-1.523-9.337,10.211,10.211,0,0,1,1.95-3.944A.711.711,0,0,0,32.231,13,23.172,23.172,0,0,0,29.87,9.437a14.267,14.267,0,0,0-5.437-4.083,18.324,18.324,0,0,0-7.4-1.338,14.911,14.911,0,0,0-6.153,1.407,19.033,19.033,0,0,0-8.613,7.67A15.5,15.5,0,0,0,.315,24.264a16.749,16.749,0,0,0,6,10.119,16.708,16.708,0,0,0,10.864,3.87q8.106.011,16.213,0l.842.028,0-.328c0-2.54,0-5.08.012-7.62A.835.835,0,0,0,33.866,29.589ZM28.2,19.948a2.453,2.453,0,0,1-1.972,2.085,6.311,6.311,0,0,1-1.758.194q-5.59,0-11.18.008a1.524,1.524,0,0,0-.846.1,5.183,5.183,0,0,0,4.448,4.454,7.19,7.19,0,0,0,5.12-1.193,16.92,16.92,0,0,1,1.507-.933,2.17,2.17,0,0,1,1.874-.048c1.086.459,1.584,1.646.824,3.059a4.414,4.414,0,0,1-1.177,1.321,9.243,9.243,0,0,1-3.964,1.884,12.6,12.6,0,0,1-6.9-.291,9.291,9.291,0,0,1-6.1-6.4,10.536,10.536,0,0,1,1.62-9.72,9.435,9.435,0,0,1,6.425-3.8,11.084,11.084,0,0,1,6.448.868,9.877,9.877,0,0,1,5.528,7.217A3.391,3.391,0,0,1,28.2,19.948Z" transform="translate(0 -1.815)" fill="#f48534"/><path d="M172.988,4.38c0-.108,0-.217,0-.324a2.325,2.325,0,0,0-1.493-2.122,2.44,2.44,0,0,0-3.4,2.171c.046,2.241.013,4.484.007,6.726a1.651,1.651,0,0,1-.1.856,10.247,10.247,0,0,0-7.617-2.978,10,10,0,0,0-7.451,3.485,10.283,10.283,0,0,0-.146,13.514,9.79,9.79,0,0,0,6.33,3.553A10.138,10.138,0,0,0,168,26.344a3.081,3.081,0,0,1,.115.959,2.3,2.3,0,0,0,1.481,1.864A2.176,2.176,0,0,0,172,28.789a2.919,2.919,0,0,0,.995-2.286Q172.977,15.442,172.988,4.38Zm-12.293,20.7a6.048,6.048,0,1,1,.02-12.1A5.915,5.915,0,0,1,166.687,19,5.967,5.967,0,0,1,160.695,25.081Z" transform="translate(-119.46 0)" fill="#f48534"/><path d="M482.262,40.885a6.307,6.307,0,0,0-5.825-5.087,7.183,7.183,0,0,0-4.745,1.243,10.254,10.254,0,0,0-2.806,2.894c-.095-.2-.177-.365-.257-.535a6.143,6.143,0,0,0-5.829-3.609,7.165,7.165,0,0,0-5.319,2.128c-.305.3-.6.6-.986.979,0-.491.012-.866,0-1.24a1.528,1.528,0,0,0-2.126-1.265,1.724,1.724,0,0,0-.944,1.72q.01,8.226,0,16.453a4.312,4.312,0,0,0,.007.486,1.516,1.516,0,0,0,1.553,1.332,1.486,1.486,0,0,0,1.506-1.376c.02-.242,0-.486.007-.729.075-3.209-.167-6.423.155-9.628a6.572,6.572,0,0,1,2.47-4.793,4.906,4.906,0,0,1,4.271-.939c1.88.439,2.7,1.62,2.981,3.835a31.554,31.554,0,0,1,.156,4.117q-.023,4.052,0,8.1a1.329,1.329,0,0,0,1.189,1.4,1.476,1.476,0,0,0,1.738-.975,3,3,0,0,0,.134-1.2c-.028-.455-.11-.9-.108-1.365.011-2.292-.058-4.585.123-6.875a22.318,22.318,0,0,1,.332-2.551,5.555,5.555,0,0,1,6.091-4.574,3.554,3.554,0,0,1,3.158,2.588,9.057,9.057,0,0,1,.333,2.385c-.01,2.81,0,5.619,0,8.429,0,.865-.03,1.73.009,2.593a1.524,1.524,0,0,0,1.676,1.56,1.4,1.4,0,0,0,1.411-1.608c0-3.728-.011-7.457-.014-11.185A11.163,11.163,0,0,0,482.262,40.885Z" transform="translate(-360.334 -27.043)" fill="#78c04e"/><path d="M289.786,43.746c-.013-1.837-.006-3.674-.017-5.512a2.508,2.508,0,0,0-2.137-2.471A2.387,2.387,0,0,0,285,37.332a3.7,3.7,0,0,0-.227,1.342c.008,1.567,0,3.134,0,4.7h0c0,.811,0,1.621,0,2.432s0,1.622-.033,2.431a3.544,3.544,0,0,1-2.724,3.466,3.438,3.438,0,0,1-4.27-2.452,10.7,10.7,0,0,1-.294-2.148c-.03-2.941.017-5.883-.14-8.822a2.765,2.765,0,0,0-.125-.954,2.459,2.459,0,0,0-4.762.912c.03,3.372-.169,6.747.139,10.116a11.245,11.245,0,0,0,.666,3.215,6.981,6.981,0,0,0,3.666,4,10.683,10.683,0,0,0,6.926.5,7.081,7.081,0,0,0,4.154-2.733,9.332,9.332,0,0,0,1.616-4.9A41.736,41.736,0,0,0,289.786,43.746Z" transform="translate(-216.475 -27.013)" fill="#f48534"/><path d="M625.623,51.6a1.566,1.566,0,0,0-.439-2.029,1.4,1.4,0,0,0-2.024.211,6.907,6.907,0,0,0-.59.666,7.377,7.377,0,0,1-6.315,2.96,6.249,6.249,0,0,1-4.018-1.446,7.305,7.305,0,0,1-2.685-5.41,1.468,1.468,0,0,1,.722-.085q6.848,0,13.7.005a4.132,4.132,0,0,0,1.271-.176,1.858,1.858,0,0,0,1.447-2.066,9.805,9.805,0,0,0-5.456-7.618,10.44,10.44,0,0,0-6.6-.843c-3.555.6-5.84,2.784-7.339,5.917a10.166,10.166,0,0,0-.851,4.713,10.35,10.35,0,0,0,2.714,6.73c2.5,2.87,5.8,3.426,9.346,3.017a9.72,9.72,0,0,0,5.084-2.273A7.085,7.085,0,0,0,625.623,51.6ZM617.24,38.568c3.085.288,5.64,2.243,6.08,5.111H609.977A6.6,6.6,0,0,1,617.24,38.568Z" transform="translate(-481.936 -26.905)" fill="#78c04e"/><path d="M717.53,45.822a39.215,39.215,0,0,0-3.4-2.014,7.153,7.153,0,0,1-1.977-1.516,2.071,2.071,0,0,1-.545-1.71,2.543,2.543,0,0,1,2.442-2.064,4.322,4.322,0,0,1,2.639.841,7.327,7.327,0,0,0,.888.554,1.487,1.487,0,0,0,1.815-.389,1.391,1.391,0,0,0-.13-1.843,2.763,2.763,0,0,0-.339-.338,8.606,8.606,0,0,0-1.881-1.087,5.883,5.883,0,0,0-4.311-.451,5.269,5.269,0,0,0-3.506,7.334,5.775,5.775,0,0,0,2.016,2.372,22.6,22.6,0,0,0,2.773,1.641,8.656,8.656,0,0,1,2.326,1.583,2.331,2.331,0,0,1,.441,2.747,2.913,2.913,0,0,1-1.808,1.63,3.673,3.673,0,0,1-3.832-.773,13.43,13.43,0,0,0-1.163-1,1.529,1.529,0,0,0-1.849.158,1.5,1.5,0,0,0-.289,1.785,3.382,3.382,0,0,0,.784,1.02,8.124,8.124,0,0,0,5.252,1.943c.081,0,.162,0,.243,0a5.844,5.844,0,0,0,5.84-5.361A5.391,5.391,0,0,0,717.53,45.822Z" transform="translate(-562.383 -26.904)" fill="#78c04e"/><path d="M377.682,9.472a1.29,1.29,0,0,0-1.118-.523c-.8.023-1.6.006-2.459.006V7.674c0-1.35,0-2.7,0-4.05a1.525,1.525,0,0,0-2.114-1.457,1.554,1.554,0,0,0-.961,1.54q.012,2.309,0,4.617c0,.2.085.434-.142.632h-.939c-.324,0-.65-.018-.972.006a1.336,1.336,0,0,0-1.171,1.85,1.433,1.433,0,0,0,1.411.885c.566.019,1.132,0,1.817,0v.955q0,7.453,0,14.906a5.781,5.781,0,0,0,.011.728,1.521,1.521,0,0,0,1.587,1.292,1.5,1.5,0,0,0,1.467-1.332,6.3,6.3,0,0,0,.008-.648q0-7.493,0-14.987a1.853,1.853,0,0,1,.056-.845c.052-.029.074-.053.1-.053q.972-.01,1.943-.016a2.392,2.392,0,0,0,.793-.1A1.312,1.312,0,0,0,377.682,9.472Z" transform="translate(-292.211 -0.242)" fill="#78c04e"/><path d="M426.453,37.118a1.488,1.488,0,0,0-1.332-1.385,1.536,1.536,0,0,0-1.689,1.068,3.3,3.3,0,0,0-.046.8q0,8.416,0,16.833c0,.162-.007.324,0,.486a1.569,1.569,0,0,0,1.128,1.409,1.553,1.553,0,0,0,1.807-.866,2.009,2.009,0,0,0,.133-.947q0-4.249,0-8.5,0-4.167,0-8.335C426.457,37.5,426.466,37.306,426.453,37.118Z" transform="translate(-336.461 -27.014)" fill="#78c04e"/><path d="M421.872,6.675a2.254,2.254,0,0,0,2.292-2.392,2.21,2.21,0,0,0-2.339-2.27,2.244,2.244,0,0,0-2.3,2.315A2.3,2.3,0,0,0,421.872,6.675Z" transform="translate(-333.395 -0.223)" fill="#78c04e"/><path d="M468.571,150.921l-1.649,3.268c-.321-.636-.585-1.194-.88-1.735a6.012,6.012,0,0,0-.928-1.622c-.056.486-.091.86-.145,1.232-.123.853-.256,1.7-.383,2.555-.019.129-.057.283.127.322.205.044.291-.079.307-.268a1.853,1.853,0,0,1,.027-.322,12.281,12.281,0,0,1,.4-2.193l1.464,2.9,1.469-2.89c.289.509.143,1.031.316,1.481.164.426-.156,1.032.59,1.4l-.581-4.1Z" transform="translate(-369.193 -118.49)" fill="#2e2f2f"/><path d="M691.745,150.191a2.149,2.149,0,0,0-2.223,2.168,2.187,2.187,0,0,0,2.182,2.222,2.164,2.164,0,0,0,2.213-2.184A2.124,2.124,0,0,0,691.745,150.191Zm-.1,3.945a1.684,1.684,0,0,1-1.675-1.789,1.749,1.749,0,1,1,3.5.063A1.685,1.685,0,0,1,691.648,154.136Z" transform="translate(-547.963 -117.98)" fill="#2e2f2f"/><path d="M326.872,150.615a7.337,7.337,0,0,0-1.686-.14c-.313.009-.418.146-.416.449.01,1.209,0,2.418,0,3.74.643,0,1.2.023,1.763-.005a1.806,1.806,0,0,0,1.778-1.739A1.99,1.99,0,0,0,326.872,150.615Zm.921,2.617a1.252,1.252,0,0,1-.994.957,4.916,4.916,0,0,1-1.542.092v-3.288a1.813,1.813,0,0,1,.993-.05C327.723,151.079,328.044,152.122,327.793,153.231Z" transform="translate(-258.094 -118.203)" fill="#313232"/><path d="M563.614,150.193a2.127,2.127,0,0,0-2.164,2.215,2.152,2.152,0,0,0,2.215,2.174,2.227,2.227,0,0,0,2.184-2.232A2.156,2.156,0,0,0,563.614,150.193Zm.008,3.952a1.733,1.733,0,0,1-1.765-1.72,1.835,1.835,0,0,1,1.75-1.851,1.775,1.775,0,0,1,1.78,1.794A1.706,1.706,0,0,1,563.621,154.145Z" transform="translate(-446.184 -117.982)" fill="#2e2f2f"/><path d="M208.921,150.193a2.119,2.119,0,0,0-2.195,2.179,2.155,2.155,0,0,0,2.175,2.212,2.245,2.245,0,0,0,2.229-2.2A2.2,2.2,0,0,0,208.921,150.193Zm-.076,3.946a1.751,1.751,0,0,1-1.719-1.762,1.854,1.854,0,0,1,1.8-1.8,1.8,1.8,0,0,1,1.743,1.843A1.711,1.711,0,0,1,208.845,154.139Z" transform="translate(-164.284 -117.982)" fill="#2e2f2f"/><path d="M728.682,151.773c-.035.516.019,1.038-.044,1.715l-2.846-3.233c0,1.346,0,2.494,0,3.641,0,.135,0,.271.007.405a.184.184,0,0,0,.2.194.213.213,0,0,0,.231-.18c.02-.187.006-.378.012-.567a20.645,20.645,0,0,1,.059-2.277l2.712,3.064a11.3,11.3,0,0,0-.177-4.255C728.541,150.776,728.715,151.289,728.682,151.773Z" transform="translate(-576.786 -118.031)" fill="#2e2f2f"/><path d="M274.88,151.546a1.072,1.072,0,0,0-1-.983,8.907,8.907,0,0,0-1.128-.081c-.411-.027-.5.163-.492.529.017,1.079.005,2.159.008,3.239a.8.8,0,0,0,.042.311c.023.052.125.083.2.1a.143.143,0,0,0,.11-.088c.023-.184.031-.371.042-.556a6.018,6.018,0,0,1,.056-1.245c.255,0,.323.158.419.28.366.467.741.928,1.092,1.406a.415.415,0,0,0,.619.14l-1.4-1.834a4.7,4.7,0,0,0,.513-.057A1.114,1.114,0,0,0,274.88,151.546Zm-1.235.806c-.292.006-.583,0-.953,0-.018-.178-.037-.28-.038-.382,0-.317,0-.633,0-.979a2.757,2.757,0,0,1,1.119-.055.647.647,0,0,1,.649.591.688.688,0,0,1-.543.771A.839.839,0,0,1,273.645,152.352Z" transform="translate(-216.361 -118.209)" fill="#2c2d2d"/><path d="M245.591,150.841a.387.387,0,0,0-.1-.21.235.235,0,0,0-.139-.071.149.149,0,0,0-.181.115,4.7,4.7,0,0,0-.028.562c0,.754.016,1.509-.015,2.262a.954.954,0,0,1-1.906.022c-.028-.429-.005-.861-.005-1.292h-.012c0-.485,0-.969,0-1.454,0-.108-.041-.22-.182-.212a.244.244,0,0,0-.231.188.527.527,0,0,0-.024.158,25.055,25.055,0,0,0,.069,2.823,1.154,1.154,0,0,0,.263.661,1.4,1.4,0,0,0,1.391.453,1.222,1.222,0,0,0,1.009-1.023A19.371,19.371,0,0,0,245.591,150.841Z" transform="translate(-192.922 -118.271)" fill="#343535"/><path d="M380.813,154.378h.455c.119-.209.626-1.335.626-1.335l1.772-.006.742,1.341h.437c-.64-1.365-1.312-2.777-2.013-4.272Q381.76,152.376,380.813,154.378Zm2.7-1.816-1.369-.011.685-1.44Z" transform="translate(-302.632 -117.913)" fill="#303131"/><path d="M624.047,150.593a.226.226,0,0,0-.22.2c-.013.188-.016.376-.017.564,0,.728.014,1.457-.017,2.184a.845.845,0,0,1-.9.921.905.905,0,0,1-.992-.854,5.163,5.163,0,0,1-.019-.727c0-.674,0-1.348-.005-2.023,0-.139-.047-.282-.226-.26-.121.015-.157.134-.158.243,0,.486,0,.971,0,1.456h.009c0,.432-.018.864,0,1.294a1.271,1.271,0,0,0,1.265,1.3,1.284,1.284,0,0,0,1.418-1.053,18.036,18.036,0,0,0,.067-3.065A.171.171,0,0,0,624.047,150.593Z" transform="translate(-493.897 -118.298)" fill="#313232"/><path d="M358.915,150.956c.1,0,.223,0,.239-.15s-.061-.272-.214-.274c-.62-.01-1.241-.007-1.861,0-.209,0-.266.148-.266.327,0,1.261,0,2.521,0,3.863.486,0,.91,0,1.334,0,.27,0,.54,0,.809-.01.114-.006.176-.074.176-.207,0-.062,0-.219-.12-.219h-.519l-1.28,0c0-.406,0-1.286,0-.91v.02c0-.042,0-.631,0-.689h1.634c.187,0,.318-.069.292-.28-.024-.193-.189-.156-.313-.157-.529-.005-1.059,0-1.623,0l.011-1.3C357.777,150.959,358.378,150.961,358.915,150.956Z" transform="translate(-283.558 -118.246)" fill="#2f3030"/><path d="M413.8,152.068c-.182-.158-.39-.289-.559-.459a.551.551,0,0,1-.125-.729.616.616,0,0,1,.794-.17c.165.08.3.225.459.316.043.024.148-.029.206-.071a.155.155,0,0,0,.032-.212,1.152,1.152,0,0,0-1.547-.408.942.942,0,0,0-.282,1.4,2.281,2.281,0,0,0,.514.505,7.685,7.685,0,0,1,.831.761.616.616,0,0,1-.018.931.749.749,0,0,1-.959.068,3.775,3.775,0,0,1-.472-.548c-.169.156-.391.209-.233.42a2.288,2.288,0,0,0,.434.472,1.188,1.188,0,0,0,1.609-.154,1.043,1.043,0,0,0-.032-1.52A6.2,6.2,0,0,0,413.8,152.068Z" transform="translate(-327.728 -117.979)" fill="#313232"/><path d="M536.946,151.977a3.7,3.7,0,0,1-.43-.362c-.2-.233-.354-.5-.1-.792a.63.63,0,0,1,.812-.1,3.351,3.351,0,0,1,.383.288c.076.051.149-.005.214-.054a.148.148,0,0,0,.046-.209,1.114,1.114,0,0,0-1-.573.951.951,0,0,0-.916.538,1.063,1.063,0,0,0,.4,1.349,7.394,7.394,0,0,1,1.025.907.627.627,0,0,1,0,.936.768.768,0,0,1-.959.091,2.777,2.777,0,0,1-.338-.343c-.091-.092-.171-.2-.328-.08s-.1.219-.016.338a1.456,1.456,0,0,0,.742.594,1.216,1.216,0,0,0,1.579-1.12,1.085,1.085,0,0,0-.33-.716C537.483,152.425,537.21,152.205,536.946,151.977Z" transform="translate(-425.686 -117.971)" fill="#313232"/><path d="M757.323,152.382c-.218-.2-.468-.364-.7-.553-.454-.377-.585-.738-.38-1.02.193-.265.533-.244,1.061.1.13.084.236.133.351.024.177-.168.023-.285-.087-.4a1.429,1.429,0,0,0-.251-.2,1.074,1.074,0,0,0-1.4.165.991.991,0,0,0,.1,1.382c.205.211.457.377.677.575a3.409,3.409,0,0,1,.57.568.67.67,0,0,1-.574,1.078.878.878,0,0,1-.8-.464c-.182-.272-.3-.071-.439.044a2.112,2.112,0,0,0,.163.277,1.232,1.232,0,0,0,1.895.257A1.194,1.194,0,0,0,757.323,152.382Z" transform="translate(-600.369 -117.947)" fill="#303131"/><path d="M181.125,150.586a.868.868,0,0,0-.3.372c-.266.431-.531.864-.821,1.336-.228-.362-.406-.7-.635-.991s-.262-.794-.933-.743c.341.562.588,1.04.9,1.47a2.244,2.244,0,0,1,.437,1.582c-.024.294,0,.592,0,.888a.209.209,0,0,0,.252.231.2.2,0,0,0,.2-.205,6.967,6.967,0,0,0,0-.888,2.279,2.279,0,0,1,.464-1.656,11.969,11.969,0,0,0,.7-1.176.15.15,0,0,0-.046-.21A.2.2,0,0,0,181.125,150.586Z" transform="translate(-141.806 -118.271)" fill="#353636"/><path d="M503.478,150.353a2.518,2.518,0,0,0-.262.4q-.357.58-.712,1.162c-.589-.472-.643-1.4-1.5-1.766a1.3,1.3,0,0,0,0,.265,6.306,6.306,0,0,0,.382.615,3.691,3.691,0,0,1,.865,2.9,1.033,1.033,0,0,0,0,.241c.009.1.012.218.157.233s.275-.044.283-.2a6.491,6.491,0,0,0,0-.966,2.242,2.242,0,0,1,.448-1.58c.249-.349.456-.727.679-1.093.056-.092.106-.2,0-.286C503.688,150.163,503.562,150.262,503.478,150.353Z" transform="translate(-398.144 -117.949)" fill="#343535"/><path d="M650.618,150.506c-.645-.008-1.29-.008-1.935,0-.112,0-.167.119-.162.239s.083.176.2.192c.231.032.479-.062.74.106,0,.977,0,1.967,0,2.957a4.953,4.953,0,0,0,.022.561.145.145,0,0,0,.173.125.371.371,0,0,0,.2-.091c.11-.137.058-.309.059-.466,0-1.021,0-2.042,0-3.159.274-.013.484-.019.694-.036a.182.182,0,0,0,.185-.207C650.8,150.613,650.733,150.508,650.618,150.506Z" transform="translate(-515.38 -118.226)" fill="#3d3e3e"/><path d="M673.253,150.688c-.223-.027-.253.145-.254.316,0,.594,0,1.188,0,1.783h0q0,.891,0,1.783c0,.151.05.27.221.263s.223-.117.223-.271q0-1.783,0-3.565C673.446,150.852,673.411,150.707,673.253,150.688Z" transform="translate(-534.831 -118.373)" fill="#282929"/><path d="M307.714,150.69c-.216-.016-.257.148-.257.322,0,.567,0,1.134,0,1.7h0v1.863c0,.158.071.259.235.258.179,0,.207-.132.207-.274q0-1.782,0-3.565C307.9,150.857,307.886,150.7,307.714,150.69Z" transform="translate(-244.335 -118.376)" fill="#282929"/><path d="M599.316,154.435c-.375-.006-.751,0-1.245,0,0-.482,0-.88,0-1.279q0-1.131,0-2.262c0-.11-.029-.232-.149-.249-.174-.025-.232.114-.232.255,0,1.283,0,2.565,0,3.91h1.681c.133,0,.3,0,.3-.171C599.674,154.392,599.466,154.437,599.316,154.435Z" transform="translate(-474.979 -118.337)" fill="#292a2a"/><path d="M439.327,167.613c-.1-.043-.241-.047-.276.067-.1.337-.4.614-.31,1.008a.073.073,0,0,0,.063.035c.383-.119.388-.52.58-.783a.16.16,0,0,0,.035-.08C439.463,167.7,439.4,167.643,439.327,167.613Z" transform="translate(-348.654 -131.804)" fill="#424343"/><path d="M67.927,56.344a5.46,5.46,0,0,0-6.069,3.617H72.336C72.37,58.683,70.561,56.619,67.927,56.344Z" transform="translate(-49.158 -43.37)" fill="#f48634"/></g></g></svg>