<svg xmlns="http://www.w3.org/2000/svg" width="16.668" height="16.668" viewBox="0 0 16.668 16.668">
  <path id="Union_1" data-name="Union 1" d="M0-.666A8.334,8.334,0,0,1,8.334-9,8.334,8.334,0,0,1,16.668-.666,8.334,8.334,0,0,1,8.334,7.668,8.334,8.334,0,0,1,0-.666Zm1.041,0A7.3,7.3,0,0,0,8.334,6.626,7.3,7.3,0,0,0,15.626-.666,7.3,7.3,0,0,0,8.334-7.959,7.3,7.3,0,0,0,1.041-.666Zm3.9,3.913a.742.742,0,0,1-.74-.74V-1.165a2.457,2.457,0,0,0,.467.4Q6.341.376,6.966.833c.175.13.319.23.428.3a2.635,2.635,0,0,0,.437.222,1.329,1.329,0,0,0,.509.113h.01a1.333,1.333,0,0,0,.509-.113,2.586,2.586,0,0,0,.436-.222c.11-.072.252-.173.428-.3q.786-.57,2.3-1.6a2.611,2.611,0,0,0,.463-.4V2.507a.742.742,0,0,1-.74.74ZM8.344.879h0A.732.732,0,0,1,8.108.838,1.391,1.391,0,0,1,7.843.713C7.748.658,7.668.608,7.6.563S7.452.46,7.352.387l-.2-.141Q6.735-.05,5.944-.6C5.416-.963,5.1-1.184,5-1.257a2.292,2.292,0,0,1-.541-.534A1.079,1.079,0,0,1,4.2-2.423a.934.934,0,0,1,.192-.6.66.66,0,0,1,.548-.24h6.808a.714.714,0,0,1,.521.218.71.71,0,0,1,.22.522,1.222,1.222,0,0,1-.227.7,2.2,2.2,0,0,1-.564.569L9.533.246l-.2.141c-.1.073-.184.131-.25.175s-.147.1-.24.15A1.372,1.372,0,0,1,8.58.838a.726.726,0,0,1-.23.041Z" transform="translate(0 9)" fill="#707070"/>
</svg>
