<svg xmlns="http://www.w3.org/2000/svg" width="16.668" height="16.668" viewBox="0 0 16.668 16.668">
  <g id="auricular-phone-symbol-in-a-circle" transform="translate(0)">
    <path id="Path_9" data-name="Path 9" d="M8.334,1.042A7.292,7.292,0,1,1,1.042,8.334,7.3,7.3,0,0,1,8.334,1.042M8.334,0a8.334,8.334,0,1,0,8.334,8.334A8.334,8.334,0,0,0,8.334,0ZM12.98,11.12l-.047-.142a1.32,1.32,0,0,0-.806-.761L10.9,9.88a1.207,1.207,0,0,0-1.055.277L9.4,10.6A4.732,4.732,0,0,1,6.067,7.274l.446-.446a1.208,1.208,0,0,0,.276-1.055L6.453,4.541a1.319,1.319,0,0,0-.762-.806l-.14-.047a1.115,1.115,0,0,0-1.042.246L3.841,4.6a1.242,1.242,0,0,0-.2.458,7.87,7.87,0,0,0,7.942,7.961,1.229,1.229,0,0,0,.479-.193l.667-.667A1.116,1.116,0,0,0,12.98,11.12Z" fill="#707070"/>
  </g>
</svg>
